<?xml version="1.0" encoding="UTF-8"?>
<!DOCTYPE svg PUBLIC "-//W3C//DTD SVG 1.1//EN" "http://www.w3.org/Graphics/SVG/1.1/DTD/svg11.dtd">
<svg xmlns="http://www.w3.org/2000/svg" version="1.1" width="512px" height="512px" style="shape-rendering:geometricPrecision; text-rendering:geometricPrecision; image-rendering:optimizeQuality; fill-rule:evenodd; clip-rule:evenodd" xmlns:xlink="http://www.w3.org/1999/xlink">
	<g>
		<path style="opacity:0.984" fill="#439d21" d="M 400.5,-0.5 C 405.833,-0.5 411.167,-0.5 416.5,-0.5C 421.385,2.55505 424.551,6.88838 426,12.5C 426.832,66.6682 426.665,120.668 425.5,174.5C 414.346,173.505 403.012,173.172 391.5,173.5C 391.832,120.331 391.499,67.3307 390.5,14.5C 391.116,7.58024 394.449,2.58024 400.5,-0.5 Z"/>
	</g>
	<g>
		<path style="opacity:0.992" fill="#439d21" d="M 16.5,15.5 C 108.501,15.3333 200.501,15.5 292.5,16C 300.356,16.8578 305.522,21.0245 308,28.5C 308.667,122.833 308.667,217.167 308,311.5C 305.762,318.07 301.262,322.237 294.5,324C 201.167,324.667 107.833,324.667 14.5,324C 7.76341,322.264 3.26341,318.097 1,311.5C 0.333333,217.167 0.333333,122.833 1,28.5C 3.64281,21.014 8.80947,16.6807 16.5,15.5 Z M 144.5,68.5 C 191.47,67.0551 225.637,87.0551 247,128.5C 264.596,174.523 255.43,214.356 219.5,248C 183.858,275.079 145.858,278.746 105.5,259C 67.1623,235.158 49.9956,200.658 54,155.5C 64.7757,106.223 94.9423,77.2226 144.5,68.5 Z M 118.5,147.5 C 132.813,148.314 140.813,155.814 142.5,170C 141.074,183.259 133.741,190.759 120.5,192.5C 104.91,190.088 97.7438,181.088 99,165.5C 101.867,155.463 108.367,149.463 118.5,147.5 Z M 186.5,147.5 C 200.813,148.314 208.813,155.814 210.5,170C 209.103,183.231 201.769,190.731 188.5,192.5C 171.448,189.38 164.615,179.38 168,162.5C 171.649,154.275 177.816,149.275 186.5,147.5 Z"/>
	</g>
	<g>
		<path style="opacity:0.714" fill="#3b891d" d="M 390.5,14.5 C 391.499,67.3307 391.832,120.331 391.5,173.5C 403.012,173.172 414.346,173.505 425.5,174.5C 413.833,174.5 402.167,174.5 390.5,174.5C 390.5,121.167 390.5,67.8333 390.5,14.5 Z"/>
	</g>
	<g>
		<path style="opacity:0.984" fill="#439d21" d="M 142.5,90.5 C 183.096,87.204 211.929,103.871 229,140.5C 241.521,180.601 231.021,213.101 197.5,238C 173.749,250.991 149.082,252.991 123.5,244C 84.4152,224.328 68.9152,192.828 77,149.5C 87.3732,116.954 109.206,97.2868 142.5,90.5 Z M 118.5,147.5 C 108.367,149.463 101.867,155.463 99,165.5C 97.7438,181.088 104.91,190.088 120.5,192.5C 133.741,190.759 141.074,183.259 142.5,170C 140.813,155.814 132.813,148.314 118.5,147.5 Z M 186.5,147.5 C 177.816,149.275 171.649,154.275 168,162.5C 164.615,179.38 171.448,189.38 188.5,192.5C 201.769,190.731 209.103,183.231 210.5,170C 208.813,155.814 200.813,148.314 186.5,147.5 Z"/>
	</g>
	<g>
		<path style="opacity:0.98" fill="#439d21" d="M 343.5,197.5 C 387.56,197.016 431.56,197.516 475.5,199C 477.81,200.637 479.31,202.804 480,205.5C 480.952,220.901 480.619,236.235 479,251.5C 477.457,253.378 475.624,254.878 473.5,256C 430.167,256.667 386.833,256.667 343.5,256C 340.417,255.214 338.251,253.381 337,250.5C 336.333,234.833 336.333,219.167 337,203.5C 338.914,201.144 341.081,199.144 343.5,197.5 Z"/>
	</g>
	<g>
		<path style="opacity:0.993" fill="#439d21" d="M 471.5,511.5 C 429.167,511.5 386.833,511.5 344.5,511.5C 324.645,505.142 312.145,491.809 307,471.5C 305.873,446.36 305.373,421.194 305.5,396C 305.667,373.5 305.833,351 306,328.5C 307.513,309.676 316.346,295.509 332.5,286C 383.167,285.333 433.833,285.333 484.5,286C 496.739,293.25 504.906,303.75 509,317.5C 510.644,368.129 510.977,418.796 510,469.5C 505.593,491.371 492.759,505.371 471.5,511.5 Z M 376.5,343.5 C 384.451,342.544 389.285,345.877 391,353.5C 391.667,381.833 391.667,410.167 391,438.5C 388.522,447.706 383.022,450.54 374.5,447C 372.622,445.457 371.122,443.624 370,441.5C 369.333,411.167 369.333,380.833 370,350.5C 371.694,347.642 373.861,345.309 376.5,343.5 Z M 432.5,343.5 C 440.163,342.076 444.996,345.076 447,352.5C 447.667,381.5 447.667,410.5 447,439.5C 444.092,448.21 438.592,450.71 430.5,447C 428.383,445.269 426.883,443.102 426,440.5C 425.333,410.833 425.333,381.167 426,351.5C 427.305,348.039 429.471,345.372 432.5,343.5 Z"/>
	</g>
	<g>
		<path style="opacity:0.951" fill="#439d22" d="M 80.5,374.5 C 83.5184,374.335 86.5184,374.502 89.5,375C 90.5156,375.519 91.1822,376.353 91.5,377.5C 89.6602,385.527 88.1602,393.527 87,401.5C 94.1472,392.718 101.647,384.218 109.5,376C 113.765,374.241 118.098,374.074 122.5,375.5C 123.614,376.723 123.781,378.056 123,379.5C 116.698,386.803 110.032,393.803 103,400.5C 101.818,402.344 100.651,404.177 99.5,406C 102.924,414.348 106.757,422.514 111,430.5C 112.079,433.063 112.579,435.729 112.5,438.5C 107.475,440.16 102.641,439.827 98,437.5C 94.1972,427.896 89.8639,418.562 85,409.5C 82.9714,419.143 81.138,428.809 79.5,438.5C 74.8333,439.833 70.1667,439.833 65.5,438.5C 69.472,417.807 73.6387,397.14 78,376.5C 78.9947,375.934 79.828,375.267 80.5,374.5 Z"/>
	</g>
	<g>
		<path style="opacity:0.953" fill="#439e21" d="M 136.5,374.5 C 142.039,373.638 146.872,374.972 151,378.5C 155.535,391.771 159.868,405.105 164,418.5C 166.871,404.479 169.871,390.479 173,376.5C 176.183,374.477 179.683,373.977 183.5,375C 184.167,375.667 184.833,376.333 185.5,377C 181.418,395.409 177.585,413.909 174,432.5C 173.157,437.757 169.991,440.09 164.5,439.5C 161.243,439.582 158.409,438.582 156,436.5C 151.132,422.229 146.465,407.895 142,393.5C 138.749,407.754 135.749,422.087 133,436.5C 129.663,439.527 125.83,440.193 121.5,438.5C 121.167,437.667 120.833,436.833 120.5,436C 124.16,416.367 128.326,396.867 133,377.5C 134.145,376.364 135.312,375.364 136.5,374.5 Z"/>
	</g>
	<g>
		<path style="opacity:0.954" fill="#439d21" d="M 195.5,374.5 C 199.767,374.203 203.934,374.536 208,375.5C 210.732,382.363 213.066,389.363 215,396.5C 220.167,389.5 225.333,382.5 230.5,375.5C 235.031,374.189 239.531,374.189 244,375.5C 244.315,376.908 243.982,378.241 243,379.5C 235.997,388.187 229.497,397.187 223.5,406.5C 226.93,416.291 230.264,426.124 233.5,436C 231.918,438.872 229.418,440.038 226,439.5C 223.41,439.624 221.077,438.958 219,437.5C 216.717,429.98 214.05,422.647 211,415.5C 206.079,423.009 200.913,430.342 195.5,437.5C 191.374,439.447 187.04,439.947 182.5,439C 181.833,438.333 181.167,437.667 180.5,437C 188.289,426.589 195.956,416.089 203.5,405.5C 200.765,397.462 197.932,389.462 195,381.5C 194.297,379.071 194.463,376.738 195.5,374.5 Z"/>
	</g>
	<g>
		<path style="opacity:0.929" fill="#439d21" d="M 63.5,449.5 C 122.167,449.5 180.833,449.5 239.5,449.5C 239.5,451.833 239.5,454.167 239.5,456.5C 180.833,456.5 122.167,456.5 63.5,456.5C 63.5,454.167 63.5,451.833 63.5,449.5 Z"/>
	</g>
</svg>
